<?xml version="1.0" encoding="UTF-8"?>
<!DOCTYPE svg PUBLIC "-//W3C//DTD SVG 1.1//EN" "http://www.w3.org/Graphics/SVG/1.1/DTD/svg11.dtd">
<!-- Creator: CorelDRAW 2019 (64-Bit) -->
<svg xmlns="http://www.w3.org/2000/svg" xml:space="preserve" width="496px" height="496px" version="1.1" style="shape-rendering:geometricPrecision; text-rendering:geometricPrecision; image-rendering:optimizeQuality; fill-rule:evenodd; clip-rule:evenodd"
viewBox="0 0 254.68 254.68"
 xmlns:xlink="http://www.w3.org/1999/xlink"
 xmlns:xodm="http://www.corel.com/coreldraw/odm/2003">
 <defs>
  <style type="text/css">
   <![CDATA[
    .fil1 {fill:#129575;fill-rule:nonzero}
    .fil0 {fill:#E6E6E6;fill-opacity:0.000000}
   ]]>
  </style>
 </defs>
 <g id="Layer_x0020_1">
  <metadata id="CorelCorpID_0Corel-Layer"/>
  <polygon class="fil0" points="0,0 254.68,0 254.68,254.68 0,254.68 "/>
  <path class="fil1" d="M208.92 135.64c-2.93,0.34 -5.59,-1.75 -5.94,-4.69 -0.35,-2.93 1.75,-5.59 4.68,-5.94 9.05,-1.09 17.07,-5.51 22.81,-11.99 5.66,-6.4 9.1,-14.83 9.1,-24.09 0,-10.04 -4.07,-19.12 -10.65,-25.7 -6.57,-6.58 -15.66,-10.65 -25.7,-10.65 -3.95,0 -7.73,0.62 -11.24,1.77 -3.7,1.2 -7.11,2.95 -10.14,5.16 -2.38,1.73 -5.72,1.21 -7.45,-1.17 -0.32,-0.44 -0.56,-0.9 -0.72,-1.38l-0.01 0c-3.3,-9.49 -9.5,-17.62 -17.55,-23.33 -7.8,-5.55 -17.36,-8.81 -27.7,-8.81 -10.57,0 -20.33,3.4 -28.22,9.17 -8.12,5.93 -14.3,14.35 -17.42,24.13 -0.89,2.81 -3.89,4.37 -6.69,3.48 -0.66,-0.21 -1.25,-0.54 -1.76,-0.95 -3.16,-2.56 -6.79,-4.61 -10.73,-6 -3.78,-1.34 -7.86,-2.07 -12.13,-2.07 -10.04,0 -19.13,4.07 -25.71,10.65 -6.57,6.58 -10.64,15.66 -10.64,25.7 0,9.26 3.44,17.69 9.1,24.09 5.73,6.48 13.76,10.9 22.81,11.99 2.72,0.33 4.72,2.64 4.72,5.32l0 69.06c6.66,2.59 12.65,4.7 18.62,6.43 6.84,1.99 13.74,3.5 21.77,4.7 2.92,0.43 4.94,3.14 4.51,6.06 -0.42,2.93 -3.14,4.95 -6.06,4.52 -8.41,-1.26 -15.77,-2.87 -23.19,-5.03 -7.17,-2.08 -14.32,-4.66 -22.52,-7.92 -2.22,-0.66 -3.84,-2.71 -3.84,-5.14l0 -68.19c-9.77,-2.22 -18.39,-7.48 -24.81,-14.73 -7.35,-8.31 -11.82,-19.22 -11.82,-31.16 0,-12.99 5.27,-24.76 13.78,-33.27 8.52,-8.52 20.28,-13.78 33.28,-13.78 5.48,0 10.76,0.95 15.69,2.69 2.8,0.99 5.48,2.24 8.02,3.73 4.2,-9.16 10.69,-17.05 18.75,-22.93 9.69,-7.08 21.62,-11.26 34.49,-11.26 12.61,0 24.31,4.01 33.89,10.82 8.06,5.72 14.6,13.43 18.92,22.42 2.38,-1.27 4.87,-2.33 7.45,-3.17 4.61,-1.49 9.5,-2.3 14.55,-2.3 12.99,0 24.76,5.26 33.27,13.78 8.52,8.51 13.79,20.28 13.79,33.27 0,11.94 -4.47,22.85 -11.82,31.16 -7.44,8.4 -17.83,14.13 -29.54,15.55zm-42.05 -9.12c13.65,1.27 25.9,7.33 35.06,16.49 10.34,10.34 16.74,24.63 16.74,40.41 0,15.78 -6.4,30.07 -16.74,40.41 -10.34,10.34 -24.63,16.74 -40.41,16.74 -15.78,0 -30.07,-6.4 -40.41,-16.74 -10.34,-10.34 -16.74,-24.63 -16.74,-40.41 0,-15.78 6.4,-30.07 16.74,-40.41 9.16,-9.16 21.41,-15.22 35.06,-16.49l0 -4.8 -5.36 0c-2.95,0 -5.35,-2.39 -5.35,-5.35 0,-2.96 2.4,-5.35 5.35,-5.35l21.42 0c2.95,0 5.35,2.39 5.35,5.35 0,2.96 -2.4,5.35 -5.35,5.35l-5.36 0 0 4.8zm-57.62 7.04c2.09,-2.09 5.48,-2.09 7.57,0 2.09,2.1 2.09,5.49 0,7.58l-5.01 5.01c-2.09,2.09 -5.48,2.09 -7.57,0 -2.09,-2.09 -2.09,-5.48 0,-7.57l5.01 -5.02zm91.42 49.86c0,2.92 -2.37,5.29 -5.29,5.29 -2.92,0 -5.29,-2.37 -5.29,-5.29 0,-2.92 2.37,-5.29 5.29,-5.29 2.92,0 5.29,2.37 5.29,5.29zm-35.37 3.78c-2.09,2.09 -5.48,2.09 -7.57,0 -2.09,-2.09 -2.09,-5.48 0,-7.57l23.64 -23.64c2.09,-2.09 5.48,-2.09 7.57,0 2.09,2.09 2.09,5.48 0,7.57l-23.64 23.64zm-23.98 16.42c2.06,2.07 2.06,5.42 0,7.48 -2.07,2.06 -5.42,2.06 -7.48,0 -2.07,-2.06 -2.07,-5.41 0,-7.48 2.06,-2.06 5.41,-2.06 7.48,0zm20.2 -59.35c2.92,0 5.29,2.37 5.29,5.29 0,2.92 -2.37,5.29 -5.29,5.29 -2.92,0 -5.29,-2.37 -5.29,-5.29 0,-2.92 2.37,-5.29 5.29,-5.29zm0 67.72c2.92,0 5.29,2.37 5.29,5.29 0,2.92 -2.37,5.29 -5.29,5.29 -2.92,0 -5.29,-2.37 -5.29,-5.29 0,-2.92 2.37,-5.29 5.29,-5.29zm27.68 -0.89c-2.06,2.06 -5.41,2.06 -7.48,0 -2.06,-2.06 -2.06,-5.41 0,-7.48 2.07,-2.06 5.42,-2.06 7.48,0 2.06,2.07 2.06,5.42 0,7.48zm-56.25 -27.68c0,2.92 -2.37,5.29 -5.29,5.29 -2.92,0 -5.29,-2.37 -5.29,-5.29 0,-2.92 2.37,-5.29 5.29,-5.29 2.92,0 5.29,2.37 5.29,5.29zm8.37 -20.2c-2.07,2.06 -5.42,2.06 -7.48,0 -2.07,-2.07 -2.07,-5.42 0,-7.48 2.06,-2.07 5.41,-2.07 7.48,0 2.06,2.06 2.06,5.41 0,7.48zm53.04 -12.64c-8.41,-8.4 -20.02,-13.6 -32.84,-13.6 -12.82,0 -24.44,5.2 -32.84,13.6 -8.4,8.4 -13.6,20.01 -13.6,32.84 0,12.82 5.2,24.43 13.6,32.84 8.4,8.4 20.02,13.6 32.84,13.6 12.82,0 24.43,-5.2 32.84,-13.6 8.4,-8.41 13.6,-20.02 13.6,-32.84 0,-12.83 -5.2,-24.44 -13.6,-32.84zm7.65 -82.05c-2.94,0.05 -5.3,2.47 -5.25,5.42 0.05,2.94 2.47,5.29 5.42,5.24 2.01,-0.03 3.72,0.39 5.11,1.31 1.49,1 2.78,2.66 3.85,5.04 1.2,2.69 4.36,3.9 7.05,2.7 2.69,-1.2 3.89,-4.36 2.69,-7.05 -1.92,-4.28 -4.49,-7.44 -7.65,-9.55 -3.28,-2.19 -7.03,-3.19 -11.22,-3.11zm-73.57 -28.77c2.94,0.04 5.29,2.47 5.25,5.41 -0.05,2.95 -2.48,5.3 -5.42,5.25 -2.72,-0.05 -7.04,1 -10.84,2.9 -2.64,1.32 -4.85,2.94 -5.62,4.65 -1.2,2.69 -4.35,3.9 -7.04,2.7 -2.69,-1.2 -3.9,-4.36 -2.7,-7.05 1.88,-4.21 5.97,-7.52 10.59,-9.83 5.3,-2.65 11.61,-4.11 15.78,-4.03zm-75.22 28.77c2.95,0.05 5.3,2.47 5.25,5.42 -0.04,2.94 -2.47,5.29 -5.41,5.24 -2.01,-0.03 -3.73,0.39 -5.11,1.31 -1.5,1 -2.79,2.66 -3.86,5.04 -1.2,2.69 -4.35,3.9 -7.04,2.7 -2.69,-1.2 -3.9,-4.36 -2.7,-7.05 1.92,-4.28 4.49,-7.44 7.66,-9.55 3.27,-2.19 7.03,-3.19 11.21,-3.11z"/>
 </g>
</svg>
