<?xml version="1.0" encoding="UTF-8"?>
<!DOCTYPE svg PUBLIC "-//W3C//DTD SVG 1.1//EN" "http://www.w3.org/Graphics/SVG/1.1/DTD/svg11.dtd">
<!-- Creator: CorelDRAW 2019 (64-Bit) -->
<svg xmlns="http://www.w3.org/2000/svg" xml:space="preserve" width="496px" height="496px" version="1.1" style="shape-rendering:geometricPrecision; text-rendering:geometricPrecision; image-rendering:optimizeQuality; fill-rule:evenodd; clip-rule:evenodd"
viewBox="0 0 432.6 432.6"
 xmlns:xlink="http://www.w3.org/1999/xlink"
 xmlns:xodm="http://www.corel.com/coreldraw/odm/2003">
 <defs>
  <style type="text/css">
   <![CDATA[
    .fil1 {fill:#129575;fill-rule:nonzero}
    .fil0 {fill:#E6E6E6;fill-opacity:0.000000}
   ]]>
  </style>
 </defs>
 <g id="Layer_x0020_1">
  <metadata id="CorelCorpID_0Corel-Layer"/>
  <polygon class="fil0" points="0,0 432.6,0 432.6,432.6 0,432.6 "/>
  <path class="fil1" d="M338.54 195.77c23.17,2.15 43.99,12.45 59.54,28.01 17.57,17.57 28.44,41.83 28.44,68.64 0,26.8 -10.87,51.07 -28.44,68.64 -17.56,17.56 -41.83,28.43 -68.63,28.43 -26.81,0 -51.08,-10.87 -68.64,-28.43 -17.57,-17.57 -28.43,-41.84 -28.43,-68.64 0,-26.81 10.86,-51.07 28.43,-68.64 15.55,-15.56 36.37,-25.86 59.54,-28.01l0 -8.15 -9.09 0c-5.02,0 -9.09,-4.07 -9.09,-9.09 0,-5.03 4.07,-9.1 9.09,-9.1l36.37 0c5.02,0 9.1,4.07 9.1,9.1 0,5.02 -4.08,9.09 -9.1,9.09l-9.09 0 0 8.15zm-58.68 -18.34c4.75,1.61 7.29,6.76 5.69,11.51 -1.61,4.74 -6.77,7.29 -11.51,5.68 -21,-7.16 -44.79,-10.87 -70.84,-11.82 -26.41,-0.95 -55.13,0.92 -85.57,4.94 -3.84,0.5 -7.43,-1.48 -9.16,-4.7l-53.03 -90.64 -0.22 -0.41 -0.02 0.02c-2.97,-5.7 -8.07,-7.48 -13.03,-6.81 -2.6,0.35 -5.23,1.32 -7.63,2.73 -2.4,1.42 -4.47,3.22 -5.98,5.26 -2.54,3.43 -3.31,7.75 -0.55,11.79l53.16 77.26c2.85,4.12 1.81,9.76 -2.3,12.61 -0.42,0.29 -0.86,0.54 -1.3,0.74 -17.81,9.36 -31,18.88 -39.9,28.3 -7.06,7.48 -11.26,14.74 -12.77,21.62 -0.58,2.69 -0.76,5.34 -0.53,7.96l0.12 1.07c0.41,3.23 1.44,6.39 3.05,9.48 2.11,4.03 5.26,8.03 9.39,11.93 13.75,12.99 37.51,23.61 67.73,30.56 30.05,6.9 66.17,10.06 105.03,8.22 5,-0.24 9.25,3.63 9.48,8.63 0.24,5 -3.63,9.25 -8.63,9.48 -40.57,1.92 -78.38,-1.39 -109.93,-8.64 -27.16,-6.24 -49.91,-15.48 -66.1,-26.91 1.33,4.23 2.68,8.39 4.01,12.46 1.32,4.04 2.61,7.99 4.14,12.92 22.52,24.71 50.66,40.51 83.65,48.57 34.25,8.37 73.82,8.5 117.88,1.68 4.94,-0.77 9.57,2.62 10.34,7.56 0.76,4.95 -2.63,9.57 -7.57,10.34 -46.38,7.18 -88.3,6.98 -124.91,-1.96 -37.25,-9.1 -68.95,-27.14 -94.22,-55.51 -1.06,-1.19 -1.75,-2.59 -2.08,-4.04 -1.11,-3.59 -2.78,-8.7 -4.49,-13.94 -5.76,-17.64 -12.04,-36.89 -14.54,-56.75 -0.96,-5.54 -0.83,-11.2 0.42,-16.94 2.21,-10.1 7.91,-20.26 17.32,-30.22 8.67,-9.18 20.64,-18.31 36.11,-27.19l-47.54 -69.06c-7.9,-11.5 -5.94,-23.48 0.97,-32.82 2.97,-4.02 6.9,-7.49 11.3,-10.09 4.4,-2.59 9.38,-4.39 14.46,-5.07 12.05,-1.64 24.4,2.65 31.56,16.4l-0.01 0 49.94 85.37c29.19,-3.61 56.88,-5.24 82.59,-4.31 27.83,1.01 53.36,5.01 76.02,12.74zm-238.64 -80.43c3.17,-1.65 7.36,0.12 9.37,3.96 2,3.84 1.05,8.3 -2.12,9.95 -3.17,1.66 -7.37,-0.12 -9.37,-3.96 -2.01,-3.84 -1.06,-8.29 2.12,-9.95zm20.38 166.99c-4.2,2.72 -9.81,1.53 -12.54,-2.67 -2.73,-4.2 -1.53,-9.81 2.66,-12.54 24.15,-15.75 49.92,-25.95 77.08,-31.32 27.02,-5.34 55.38,-5.89 84.88,-2.38 4.98,0.59 8.54,5.11 7.95,10.09 -0.59,4.98 -5.1,8.54 -10.09,7.96 -27.66,-3.3 -54.15,-2.8 -79.26,2.16 -24.95,4.93 -48.58,14.28 -70.68,28.7zm80.05 -211.69c-3.61,-3.48 -3.72,-9.22 -0.25,-12.83 3.47,-3.61 9.21,-3.72 12.82,-0.25 8.19,7.86 11.39,16.97 11.39,25.96 0,10.55 -4.62,20.73 -10.61,28.21 -4.82,6 -7.46,11.49 -7.56,16.37 -0.09,4.4 2.06,8.84 6.74,13.31 3.63,3.46 3.78,9.2 0.32,12.83 -3.45,3.62 -9.19,3.77 -12.82,0.32 -8.63,-8.24 -12.55,-17.21 -12.35,-26.81 0.19,-9.13 4.21,-18.26 11.53,-27.39 3.71,-4.62 6.57,-10.74 6.57,-16.84 0,-4.39 -1.63,-8.9 -5.78,-12.88zm43.76 0c-3.61,-3.48 -3.72,-9.22 -0.25,-12.83 3.47,-3.61 9.21,-3.72 12.82,-0.25 8.19,7.86 11.39,16.97 11.39,25.96 0,10.55 -4.61,20.73 -10.61,28.21 -4.82,6 -7.46,11.49 -7.56,16.37 -0.09,4.4 2.06,8.84 6.74,13.31 3.63,3.46 3.78,9.2 0.32,12.83 -3.45,3.62 -9.19,3.77 -12.82,0.32 -8.63,-8.24 -12.55,-17.21 -12.35,-26.81 0.19,-9.13 4.21,-18.26 11.53,-27.39 3.71,-4.62 6.57,-10.74 6.57,-16.84 0,-4.39 -1.63,-8.9 -5.78,-12.88zm43.76 0c-3.61,-3.48 -3.72,-9.22 -0.25,-12.83 3.47,-3.61 9.21,-3.72 12.82,-0.25 8.2,7.86 11.39,16.97 11.39,25.96 0,10.55 -4.61,20.73 -10.61,28.21 -4.82,6 -7.45,11.49 -7.56,16.37 -0.09,4.4 2.06,8.84 6.75,13.31 3.62,3.46 3.77,9.2 0.32,12.83 -3.46,3.62 -9.2,3.77 -12.83,0.32 -8.62,-8.24 -12.55,-17.21 -12.35,-26.81 0.19,-9.13 4.21,-18.26 11.54,-27.39 3.7,-4.62 6.56,-10.74 6.56,-16.84 0,-4.39 -1.63,-8.9 -5.78,-12.88zm11.49 155.43c3.55,-3.55 9.31,-3.55 12.86,0 3.56,3.56 3.56,9.31 0,12.86l-8.52 8.52c-3.55,3.56 -9.31,3.56 -12.86,0 -3.55,-3.55 -3.55,-9.3 0,-12.86l8.52 -8.52zm155.28 84.69c0,4.96 -4.02,8.98 -8.98,8.98 -4.96,0 -8.98,-4.02 -8.98,-8.98 0,-4.96 4.02,-8.98 8.98,-8.98 4.96,0 8.98,4.02 8.98,8.98zm-60.06 6.43c-3.56,3.55 -9.31,3.55 -12.86,0 -3.55,-3.55 -3.55,-9.31 0,-12.86l40.15 -40.16c3.55,-3.55 9.31,-3.55 12.86,0 3.55,3.55 3.55,9.31 0,12.86l-40.15 40.16zm-40.75 27.89c3.5,3.5 3.5,9.19 0,12.7 -3.51,3.5 -9.2,3.5 -12.7,0 -3.51,-3.51 -3.51,-9.2 0,-12.7 3.5,-3.51 9.19,-3.51 12.7,0zm34.32 -100.82c4.96,0 8.98,4.02 8.98,8.98 0,4.96 -4.02,8.99 -8.98,8.99 -4.96,0 -8.99,-4.03 -8.99,-8.99 0,-4.96 4.03,-8.98 8.99,-8.98zm0 115.03c4.96,0 8.98,4.02 8.98,8.98 0,4.96 -4.02,8.98 -8.98,8.98 -4.96,0 -8.99,-4.02 -8.99,-8.98 0,-4.96 4.03,-8.98 8.99,-8.98zm47.02 -1.51c-3.51,3.5 -9.2,3.5 -12.71,0 -3.5,-3.51 -3.5,-9.2 0,-12.7 3.51,-3.51 9.2,-3.51 12.71,0 3.5,3.5 3.5,9.19 0,12.7zm-95.56 -47.02c0,4.96 -4.02,8.98 -8.98,8.98 -4.96,0 -8.98,-4.02 -8.98,-8.98 0,-4.96 4.02,-8.98 8.98,-8.98 4.96,0 8.98,4.02 8.98,8.98zm14.22 -34.32c-3.51,3.51 -9.2,3.51 -12.7,0 -3.51,-3.51 -3.51,-9.19 0,-12.7 3.5,-3.51 9.19,-3.51 12.7,0 3.5,3.51 3.5,9.19 0,12.7zm90.1 -21.46c-14.28,-14.27 -34,-23.1 -55.78,-23.1 -21.79,0 -41.51,8.83 -55.78,23.1 -14.28,14.27 -23.11,33.99 -23.11,55.78 0,21.78 8.83,41.5 23.11,55.78 14.27,14.27 33.99,23.1 55.78,23.1 21.78,0 41.5,-8.83 55.78,-23.1 14.27,-14.28 23.1,-34 23.1,-55.78 0,-21.79 -8.83,-41.51 -23.1,-55.78z"/>
 </g>
</svg>
