<?xml version="1.0" encoding="UTF-8"?>
<!DOCTYPE svg PUBLIC "-//W3C//DTD SVG 1.1//EN" "http://www.w3.org/Graphics/SVG/1.1/DTD/svg11.dtd">
<!-- Creator: CorelDRAW 2019 (64-Bit) -->
<svg xmlns="http://www.w3.org/2000/svg" xml:space="preserve" width="1270px" height="410px" version="1.1" style="shape-rendering:geometricPrecision; text-rendering:geometricPrecision; image-rendering:optimizeQuality; fill-rule:evenodd; clip-rule:evenodd"
viewBox="0 0 204.87 66.18"
 xmlns:xlink="http://www.w3.org/1999/xlink"
 xmlns:xodm="http://www.corel.com/coreldraw/odm/2003">
 <defs>
  <style type="text/css">
   <![CDATA[
    .fil1 {fill:black;fill-rule:nonzero}
    .fil0 {fill:#129575;fill-rule:nonzero}
   ]]>
  </style>
 </defs>
 <g id="Layer_x0020_1">
  <metadata id="CorelCorpID_0Corel-Layer"/>
  <path class="fil0" d="M15.32 17.08c0.93,0.01 1.66,0.77 1.65,1.7 -0.02,0.92 -0.78,1.66 -1.7,1.64 -0.63,-0.01 -1.17,0.12 -1.6,0.41 -0.47,0.32 -0.88,0.84 -1.21,1.58 -0.38,0.85 -1.37,1.23 -2.21,0.85 -0.85,-0.38 -1.23,-1.37 -0.85,-2.21 0.6,-1.35 1.41,-2.33 2.4,-3 1.03,-0.68 2.21,-1 3.52,-0.97z"/>
  <path class="fil0" d="M38.92 8.05c0.93,0.01 1.67,0.77 1.65,1.7 -0.01,0.92 -0.77,1.66 -1.7,1.64 -0.85,-0.01 -2.21,0.32 -3.4,0.91 -0.83,0.42 -1.52,0.93 -1.76,1.46 -0.38,0.85 -1.37,1.23 -2.21,0.85 -0.85,-0.38 -1.23,-1.37 -0.85,-2.21 0.59,-1.32 1.87,-2.36 3.32,-3.09 1.67,-0.83 3.65,-1.29 4.95,-1.26z"/>
  <path class="fil0" d="M62.01 17.08c-0.92,0.01 -1.66,0.77 -1.65,1.7 0.02,0.92 0.78,1.66 1.7,1.64 0.63,-0.01 1.17,0.12 1.61,0.41 0.47,0.32 0.87,0.84 1.21,1.58 0.37,0.85 1.36,1.23 2.21,0.85 0.84,-0.38 1.22,-1.37 0.84,-2.21 -0.6,-1.35 -1.4,-2.33 -2.4,-3 -1.03,-0.68 -2.2,-1 -3.52,-0.97z"/>
  <path class="fil0" d="M64.18 38.14c-0.92,0.1 -1.75,-0.55 -1.86,-1.47 -0.11,-0.92 0.55,-1.76 1.47,-1.87 2.84,-0.34 5.35,-1.73 7.15,-3.76 1.78,-2.01 2.86,-4.66 2.86,-7.56 0,-3.15 -1.28,-6 -3.34,-8.07 -2.07,-2.06 -4.92,-3.34 -8.07,-3.34 -1.24,0 -2.42,0.2 -3.53,0.56 -1.16,0.37 -2.23,0.92 -3.18,1.62 -0.75,0.54 -1.79,0.37 -2.33,-0.37 -0.1,-0.14 -0.18,-0.28 -0.23,-0.44l0 0.01c-1.04,-2.98 -2.99,-5.53 -5.51,-7.33 -2.45,-1.74 -5.45,-2.76 -8.69,-2.76 -3.32,0 -6.38,1.07 -8.86,2.88 -2.55,1.86 -4.49,4.5 -5.47,7.57 -0.28,0.88 -1.22,1.37 -2.1,1.09 -0.2,-0.06 -0.39,-0.17 -0.55,-0.3 -0.99,-0.8 -2.13,-1.44 -3.37,-1.88 -1.18,-0.42 -2.46,-0.65 -3.8,-0.65 -3.15,0 -6.01,1.28 -8.07,3.34 -2.06,2.07 -3.34,4.92 -3.34,8.07 0,2.9 1.08,5.55 2.86,7.56 1.8,2.03 4.31,3.42 7.15,3.76 0.86,0.1 1.49,0.83 1.48,1.67l0.01 21.67c2.09,0.82 3.96,1.48 5.84,2.02 2.14,0.62 4.31,1.1 6.83,1.47 0.92,0.14 1.55,0.99 1.42,1.91 -0.14,0.91 -0.99,1.55 -1.91,1.42 -2.64,-0.4 -4.95,-0.91 -7.27,-1.58 -2.25,-0.66 -4.5,-1.47 -7.07,-2.49 -0.7,-0.21 -1.2,-0.85 -1.2,-1.61l0 -21.4c-3.07,-0.7 -5.78,-2.35 -7.79,-4.62 -2.31,-2.61 -3.71,-6.04 -3.71,-9.78 0,-4.08 1.65,-7.77 4.33,-10.44 2.67,-2.67 6.36,-4.33 10.44,-4.33 1.72,0 3.37,0.3 4.92,0.85 0.88,0.31 1.72,0.7 2.52,1.17 1.32,-2.88 3.35,-5.35 5.88,-7.2 3.04,-2.22 6.79,-3.53 10.83,-3.53 3.95,0 7.62,1.26 10.63,3.39 2.53,1.8 4.58,4.22 5.94,7.04 0.74,-0.4 1.53,-0.73 2.34,-0.99 1.44,-0.47 2.98,-0.73 4.56,-0.73 4.08,0 7.77,1.66 10.44,4.33 2.68,2.67 4.33,6.36 4.33,10.44 0,3.74 -1.4,7.17 -3.71,9.78 -2.33,2.63 -5.59,4.43 -9.27,4.88z"/>
  <path class="fil1" d="M20.92 47.13c0,-2.1 0.47,-3.98 1.41,-5.65 0.95,-1.67 2.23,-2.98 3.86,-3.92 1.64,-0.95 3.45,-1.42 5.44,-1.42 2.33,0 4.38,0.56 6.12,1.69 1.74,1.13 3.02,2.73 3.82,4.8l-3.36 0c-0.59,-1.29 -1.45,-2.28 -2.57,-2.98 -1.12,-0.7 -2.45,-1.05 -4.01,-1.05 -1.5,0 -2.85,0.35 -4.04,1.05 -1.19,0.7 -2.12,1.69 -2.8,2.97 -0.67,1.28 -1.01,2.78 -1.01,4.51 0,1.7 0.34,3.19 1.01,4.48 0.68,1.28 1.61,2.27 2.8,2.97 1.19,0.69 2.54,1.04 4.04,1.04 1.56,0 2.89,-0.34 4.01,-1.03 1.12,-0.69 1.98,-1.68 2.57,-2.97l3.36 0c-0.8,2.05 -2.08,3.64 -3.82,4.76 -1.74,1.11 -3.79,1.67 -6.12,1.67 -1.99,0 -3.8,-0.46 -5.44,-1.4 -1.63,-0.93 -2.91,-2.23 -3.86,-3.89 -0.94,-1.66 -1.41,-3.54 -1.41,-5.63zm32.16 11.02c-1.58,0 -3.01,-0.36 -4.3,-1.08 -1.28,-0.72 -2.28,-1.74 -3.01,-3.06 -0.73,-1.33 -1.09,-2.86 -1.09,-4.61 0,-1.72 0.37,-3.24 1.12,-4.57 0.75,-1.32 1.77,-2.33 3.06,-3.04 1.29,-0.71 2.74,-1.06 4.34,-1.06 1.6,0 3.05,0.35 4.34,1.06 1.29,0.71 2.31,1.72 3.06,3.03 0.75,1.31 1.13,2.84 1.13,4.58 0,1.75 -0.39,3.28 -1.16,4.61 -0.77,1.32 -1.81,2.34 -3.12,3.06 -1.32,0.72 -2.77,1.08 -4.37,1.08zm0 -2.47c1,0 1.95,-0.23 2.83,-0.7 0.88,-0.48 1.59,-1.18 2.14,-2.13 0.54,-0.94 0.81,-2.09 0.81,-3.45 0,-1.35 -0.26,-2.5 -0.8,-3.44 -0.53,-0.95 -1.23,-1.65 -2.09,-2.11 -0.86,-0.46 -1.8,-0.69 -2.8,-0.69 -1.03,0 -1.97,0.23 -2.82,0.69 -0.85,0.46 -1.53,1.16 -2.04,2.11 -0.52,0.94 -0.77,2.09 -0.77,3.44 0,1.38 0.25,2.54 0.75,3.48 0.5,0.95 1.18,1.65 2.02,2.11 0.84,0.46 1.76,0.69 2.77,0.69zm19.69 2.47c-1.58,0 -3.01,-0.36 -4.29,-1.08 -1.28,-0.72 -2.29,-1.74 -3.02,-3.06 -0.72,-1.33 -1.09,-2.86 -1.09,-4.61 0,-1.72 0.38,-3.24 1.13,-4.57 0.74,-1.32 1.76,-2.33 3.06,-3.04 1.29,-0.71 2.74,-1.06 4.34,-1.06 1.6,0 3.04,0.35 4.34,1.06 1.29,0.71 2.31,1.72 3.06,3.03 0.75,1.31 1.12,2.84 1.12,4.58 0,1.75 -0.38,3.28 -1.15,4.61 -0.77,1.32 -1.81,2.34 -3.13,3.06 -1.31,0.72 -2.77,1.08 -4.37,1.08zm0 -2.47c1.01,0 1.95,-0.23 2.84,-0.7 0.88,-0.48 1.59,-1.18 2.13,-2.13 0.55,-0.94 0.82,-2.09 0.82,-3.45 0,-1.35 -0.27,-2.5 -0.8,-3.44 -0.53,-0.95 -1.23,-1.65 -2.09,-2.11 -0.86,-0.46 -1.8,-0.69 -2.8,-0.69 -1.03,0 -1.97,0.23 -2.82,0.69 -0.85,0.46 -1.53,1.16 -2.05,2.11 -0.51,0.94 -0.77,2.09 -0.77,3.44 0,1.38 0.26,2.54 0.76,3.48 0.5,0.95 1.17,1.65 2.01,2.11 0.85,0.46 1.77,0.69 2.77,0.69zm21.76 2.19l-6.61 -7.45 0 7.45 -2.8 0 0 -22.78 2.8 0 0 13.39 6.49 -7.48 3.91 0 -7.94 8.4 7.97 8.47 -3.82 0zm7.88 -19.61c-0.53,0 -0.98,-0.18 -1.35,-0.55 -0.37,-0.37 -0.56,-0.82 -0.56,-1.35 0,-0.54 0.19,-0.99 0.56,-1.36 0.37,-0.37 0.82,-0.55 1.35,-0.55 0.51,0 0.95,0.18 1.31,0.55 0.36,0.37 0.54,0.82 0.54,1.36 0,0.53 -0.18,0.98 -0.54,1.35 -0.36,0.37 -0.8,0.55 -1.31,0.55zm1.36 2.74l0 16.87 -2.8 0 0 -16.87 2.8 0zm12.98 -0.3c2.06,0 3.72,0.62 4.99,1.86 1.27,1.24 1.91,3.03 1.91,5.37l0 9.94 -2.77 0 0 -9.54c0,-1.68 -0.42,-2.97 -1.26,-3.86 -0.85,-0.9 -1.99,-1.34 -3.45,-1.34 -1.48,0 -2.65,0.46 -3.53,1.38 -0.87,0.92 -1.3,2.27 -1.3,4.03l0 9.33 -2.8 0 0 -16.87 2.8 0 0 2.4c0.55,-0.86 1.3,-1.53 2.26,-2 0.95,-0.47 2,-0.7 3.15,-0.7zm18.44 0.03c1.46,0 2.73,0.31 3.83,0.95 1.1,0.64 1.91,1.44 2.45,2.4l0 -3.08 2.83 0 0 17.24c0,1.54 -0.33,2.91 -0.99,4.11 -0.65,1.2 -1.59,2.14 -2.81,2.81 -1.22,0.68 -2.64,1.02 -4.27,1.02 -2.21,0 -4.06,-0.53 -5.54,-1.57 -1.47,-1.05 -2.34,-2.47 -2.61,-4.28l2.77 0c0.31,1.03 0.94,1.85 1.91,2.48 0.96,0.62 2.12,0.94 3.47,0.94 1.54,0 2.8,-0.49 3.77,-1.45 0.98,-0.96 1.47,-2.32 1.47,-4.06l0 -3.54c-0.56,0.98 -1.38,1.8 -2.47,2.46 -1.08,0.66 -2.35,0.99 -3.81,0.99 -1.5,0 -2.86,-0.37 -4.08,-1.11 -1.22,-0.74 -2.18,-1.78 -2.88,-3.11 -0.69,-1.33 -1.04,-2.85 -1.04,-4.56 0,-1.72 0.35,-3.23 1.04,-4.54 0.7,-1.3 1.66,-2.31 2.88,-3.03 1.22,-0.71 2.58,-1.07 4.08,-1.07zm6.28 8.67c0,-1.27 -0.26,-2.38 -0.77,-3.32 -0.52,-0.94 -1.21,-1.67 -2.08,-2.17 -0.87,-0.5 -1.83,-0.75 -2.88,-0.75 -1.04,0 -2,0.24 -2.86,0.74 -0.86,0.49 -1.55,1.21 -2.06,2.15 -0.51,0.94 -0.77,2.05 -0.77,3.32 0,1.3 0.26,2.42 0.77,3.37 0.51,0.96 1.2,1.69 2.06,2.19 0.86,0.5 1.82,0.75 2.86,0.75 1.05,0 2.01,-0.25 2.88,-0.75 0.87,-0.5 1.56,-1.23 2.08,-2.19 0.51,-0.95 0.77,-2.06 0.77,-3.34zm24.56 -5.84c0,1.37 -0.32,2.62 -0.96,3.74 -0.63,1.12 -1.57,2 -2.81,2.66 -1.25,0.66 -2.75,0.98 -4.51,0.98l-2.71 0 0 6.93 -6.83 0 0 -21.79 9.54 0c2.66,0 4.71,0.68 6.14,2.03 1.42,1.35 2.14,3.17 2.14,5.45zm-9.05 2c1.41,0 2.12,-0.67 2.12,-2 0,-1.34 -0.71,-2 -2.12,-2l-1.94 0 0 4 1.94 0zm10.28 3.63c0,-1.83 0.31,-3.41 0.94,-4.76 0.62,-1.34 1.48,-2.37 2.57,-3.07 1.08,-0.71 2.3,-1.06 3.66,-1.06 1.13,0 2.1,0.23 2.92,0.69 0.82,0.46 1.45,1.09 1.88,1.89l0 -2.37 6.8 0 0 17.36 -6.8 0 0 -2.37c-0.43,0.8 -1.06,1.43 -1.88,1.89 -0.82,0.46 -1.79,0.69 -2.92,0.69 -1.36,0 -2.58,-0.35 -3.66,-1.06 -1.09,-0.71 -1.95,-1.73 -2.57,-3.08 -0.63,-1.34 -0.94,-2.92 -0.94,-4.75zm11.97 0c0,-0.92 -0.24,-1.64 -0.71,-2.15 -0.47,-0.52 -1.08,-0.77 -1.81,-0.77 -0.74,0 -1.35,0.25 -1.82,0.77 -0.47,0.51 -0.71,1.23 -0.71,2.15 0,0.92 0.24,1.64 0.71,2.15 0.47,0.52 1.08,0.77 1.82,0.77 0.73,0 1.34,-0.25 1.81,-0.77 0.47,-0.51 0.71,-1.23 0.71,-2.15zm16.71 -14.1l0 22.78 -6.83 0 0 -22.78 6.83 0z"/>
  <path class="fil1" d="M201.54 34.45c0.92,0 1.75,0.37 2.35,0.97 0.6,0.6 0.98,1.43 0.98,2.35 0,0.92 -0.38,1.75 -0.98,2.35 -0.6,0.6 -1.43,0.97 -2.35,0.97 -0.92,0 -1.75,-0.37 -2.35,-0.97 -0.6,-0.6 -0.97,-1.43 -0.97,-2.35 0,-0.92 0.37,-1.75 0.97,-2.35 0.6,-0.6 1.43,-0.97 2.35,-0.97zm0.03 3.16c0.29,0 0.52,-0.05 0.69,-0.16 0.17,-0.1 0.26,-0.29 0.26,-0.57 0,-0.22 -0.06,-0.39 -0.18,-0.51 -0.12,-0.13 -0.31,-0.2 -0.55,-0.2l-1.37 0 0 1.44 1.15 0zm-1.7 -1.9l1.94 0c0.39,0 0.7,0.1 0.92,0.29 0.23,0.19 0.34,0.45 0.34,0.79 0,0.27 -0.06,0.49 -0.18,0.67 -0.12,0.18 -0.3,0.31 -0.54,0.37 0.22,0.05 0.37,0.15 0.46,0.29 0.08,0.15 0.13,0.33 0.15,0.55 0.02,0.22 0.04,0.43 0.06,0.64 0.03,0.22 0.09,0.4 0.19,0.52l-0.61 0c-0.06,-0.06 -0.1,-0.23 -0.11,-0.49 -0.01,-0.26 -0.02,-0.43 -0.04,-0.52 -0.04,-0.31 -0.12,-0.51 -0.23,-0.61 -0.12,-0.09 -0.27,-0.14 -0.46,-0.14l-1.34 0 0 1.76 -0.55 0 0 -4.12zm3.68 0.05c-0.51,-0.51 -1.22,-0.83 -2.01,-0.83 -0.78,0 -1.49,0.32 -2.01,0.83 -0.51,0.52 -0.83,1.23 -0.83,2.01 0,0.79 0.32,1.5 0.83,2.01 0.52,0.52 1.23,0.83 2.01,0.83 0.79,0 1.5,-0.31 2.01,-0.83 0.52,-0.51 0.83,-1.22 0.83,-2.01 0,-0.78 -0.31,-1.49 -0.83,-2.01z"/>
 </g>
</svg>
